<?xml version="1.0" encoding="utf-8"?>
<!-- Generator: Adobe Illustrator 27.5.0, SVG Export Plug-In . SVG Version: 6.00 Build 0)  -->
<svg version="1.1" xmlns="http://www.w3.org/2000/svg" xmlns:xlink="http://www.w3.org/1999/xlink" x="0px" y="0px"
	 viewBox="0 0 500 500" style="enable-background:new 0 0 500 500;" xml:space="preserve">
<g id="BACKGROUND">
	<rect style="fill:#FCF6F1;" width="500" height="500"/>
</g>
<g id="OBJECTS">
	<path style="fill:#A595FA;" d="M411.316,367.042h-28.203c-14.048,0-25.542-11.494-25.542-25.542l0,0
		c0-14.048,11.494-25.542,25.542-25.542h28.203c14.048,0,25.542,11.494,25.542,25.542l0,0
		C436.858,355.548,425.364,367.042,411.316,367.042z"/>
	<path style="fill:#DCDCFF;" d="M217.001,133.776h-2.543c-0.197-0.521-0.422-1.03-0.672-1.523l1.939-1.939
		c0.928-0.925,1.437-2.161,1.437-3.474c0-1.316-0.509-2.552-1.437-3.477c-0.928-0.928-2.161-1.437-3.477-1.437
		c-1.313,0-2.549,0.509-3.477,1.437l-1.942,1.942c-0.456-0.231-0.925-0.441-1.406-0.626v-2.861c0-2.71-2.207-4.917-4.917-4.917
		c-2.71,0-4.917,2.207-4.917,4.917v2.377c-0.601,0.166-1.187,0.367-1.757,0.601l-1.702-1.701c-1.917-1.917-5.037-1.917-6.954,0
		c-0.462,0.465-0.82,1.005-1.066,1.594c-0.24,0.589-0.37,1.227-0.37,1.883c0,1.316,0.512,2.549,1.437,3.477l1.165,1.165
		c-0.419,0.694-0.786,1.424-1.097,2.183h-1.612c-2.71,0-4.917,2.207-4.917,4.917c0,2.713,2.207,4.917,4.917,4.917h0.943
		c0.25,0.968,0.589,1.899,1.011,2.784l-0.675,0.675c-0.928,0.928-1.44,2.164-1.44,3.477c0,1.316,0.512,2.549,1.44,3.477
		c0.925,0.928,2.161,1.437,3.474,1.437c1.316,0,2.552-0.509,3.477-1.437l0.496-0.496c0.903,0.487,1.856,0.888,2.855,1.19v0.851
		c0,2.71,2.204,4.917,4.917,4.917c2.709,0,4.914-2.207,4.914-4.917v-1.085c0.872-0.311,1.708-0.697,2.503-1.153l0.959,0.962
		c0.959,0.956,2.216,1.436,3.477,1.436c1.258,0,2.515-0.481,3.474-1.436c0.928-0.928,1.44-2.164,1.44-3.477
		c0-1.316-0.512-2.549-1.44-3.477l-1.316-1.316c0.29-0.657,0.533-1.335,0.734-2.031h2.127c2.713,0,4.917-2.207,4.917-4.917
		C221.918,135.98,219.714,133.776,217.001,133.776z M200.043,148.791c-5.533,0-10.018-4.485-10.018-10.019
		s4.485-10.019,10.018-10.019s10.019,4.485,10.019,10.019S205.577,148.791,200.043,148.791z"/>
	<path style="fill:#DCDCFF;" d="M94.067,402.195H90.32c-0.291-0.768-0.622-1.517-0.99-2.244l2.857-2.857
		c1.367-1.363,2.117-3.184,2.117-5.119c0-1.94-0.75-3.761-2.117-5.124c-1.367-1.367-3.184-2.117-5.124-2.117
		c-1.935,0-3.757,0.749-5.124,2.117l-2.862,2.862c-0.672-0.341-1.363-0.649-2.071-0.922v-4.215c0-3.993-3.252-7.245-7.245-7.245
		c-3.993,0-7.245,3.252-7.245,7.245v3.502c-0.886,0.245-1.749,0.54-2.589,0.886l-2.507-2.507c-2.825-2.825-7.422-2.825-10.247,0
		c-0.681,0.686-1.208,1.481-1.572,2.348c-0.354,0.867-0.545,1.808-0.545,2.775c0,1.94,0.754,3.756,2.117,5.124l1.717,1.717
		c-0.618,1.022-1.158,2.099-1.617,3.216h-2.376c-3.993,0-7.245,3.252-7.245,7.245c0,3.997,3.252,7.245,7.245,7.245h1.39
		c0.368,1.426,0.868,2.798,1.49,4.102l-0.995,0.995c-1.367,1.367-2.121,3.189-2.121,5.124c0,1.94,0.754,3.757,2.121,5.124
		c1.363,1.367,3.184,2.117,5.119,2.117c1.94,0,3.761-0.749,5.124-2.117l0.731-0.731c1.331,0.718,2.734,1.308,4.206,1.753v1.254
		c0,3.993,3.248,7.245,7.245,7.245c3.993,0,7.24-3.252,7.24-7.245v-1.599c1.285-0.459,2.516-1.027,3.688-1.699l1.413,1.417
		c1.413,1.408,3.266,2.117,5.124,2.117c1.853,0,3.706-0.709,5.119-2.117c1.367-1.367,2.121-3.189,2.121-5.124
		c0-1.94-0.754-3.756-2.121-5.124l-1.94-1.94c0.427-0.967,0.786-1.967,1.081-2.993h3.134c3.997,0,7.245-3.252,7.245-7.245
		C101.312,405.443,98.064,402.195,94.067,402.195z M69.08,424.32c-8.153,0-14.762-6.609-14.762-14.762
		c0-8.153,6.609-14.762,14.762-14.762s14.762,6.609,14.762,14.762C83.842,417.711,77.234,424.32,69.08,424.32z"/>
	<path style="fill:#DCDCFF;" d="M286.438,217.388h-4.084c-0.317-0.837-0.678-1.653-1.079-2.445l3.114-3.114
		c1.49-1.485,2.307-3.47,2.307-5.579c0-2.114-0.817-4.099-2.307-5.584c-1.49-1.49-3.47-2.307-5.584-2.307
		c-2.109,0-4.094,0.817-5.584,2.307l-3.119,3.119c-0.732-0.371-1.485-0.708-2.257-1.005v-4.594c0-4.351-3.544-7.895-7.896-7.895
		c-4.351,0-7.895,3.544-7.895,7.895v3.816c-0.965,0.267-1.906,0.589-2.822,0.965l-2.732-2.732c-3.079-3.079-8.088-3.079-11.167,0
		c-0.743,0.747-1.317,1.614-1.713,2.559c-0.386,0.945-0.594,1.97-0.594,3.025c0,2.114,0.822,4.094,2.307,5.584l1.871,1.871
		c-0.673,1.114-1.262,2.287-1.762,3.505h-2.589c-4.351,0-7.895,3.544-7.895,7.895c0,4.356,3.544,7.896,7.895,7.896h1.515
		c0.401,1.554,0.946,3.049,1.624,4.47l-1.084,1.084c-1.49,1.49-2.312,3.475-2.312,5.584c0,2.114,0.822,4.094,2.312,5.584
		c1.485,1.49,3.47,2.307,5.579,2.307c2.114,0,4.099-0.817,5.584-2.307l0.797-0.797c1.451,0.782,2.98,1.426,4.584,1.911v1.366
		c0,4.351,3.539,7.895,7.896,7.895c4.351,0,7.891-3.544,7.891-7.895v-1.742c1.401-0.5,2.742-1.119,4.019-1.851l1.54,1.544
		c1.54,1.535,3.559,2.307,5.584,2.307c2.02,0,4.039-0.772,5.579-2.307c1.49-1.49,2.312-3.475,2.312-5.584
		c0-2.114-0.822-4.094-2.312-5.584l-2.114-2.114c0.465-1.054,0.856-2.143,1.178-3.262h3.415c4.356,0,7.896-3.544,7.896-7.895
		C294.333,220.927,290.794,217.388,286.438,217.388z M259.207,241.5c-8.886,0-16.088-7.202-16.088-16.088
		c0-8.885,7.202-16.088,16.088-16.088c8.886,0,16.088,7.202,16.088,16.088C275.295,234.297,268.093,241.5,259.207,241.5z"/>
	<ellipse style="fill:#DCDCFF;" cx="109.454" cy="267.103" rx="16.012" ry="16.009"/>
	<circle style="fill:#DCDCFF;" cx="119.019" cy="126.655" r="11.707"/>
	<path style="fill:#DCDCFF;" d="M218.226,198.244c0,3.517-2.851,6.368-6.368,6.368c-3.517,0-6.368-2.851-6.368-6.368
		c0-3.517,2.851-6.368,6.368-6.368C215.375,191.876,218.226,194.727,218.226,198.244z"/>
	<path style="fill:#DCDCFF;" d="M191.397,93.261c0,3.517-2.851,6.368-6.368,6.368c-3.517,0-6.368-2.851-6.368-6.368
		c0-3.517,2.851-6.368,6.368-6.368C188.546,86.893,191.397,89.744,191.397,93.261z"/>
	
		<ellipse transform="matrix(0.9239 -0.3827 0.3827 0.9239 -47.6944 105.0948)" style="fill:#DCDCFF;" cx="240.327" cy="172.436" rx="8.941" ry="8.941"/>
	<path style="fill:#A595FA;" d="M442.839,356.628l-81.387-0.301c-13.399-0.05-28.948,10.247-34.552,22.881l-33.323,75.125h130.325
		l33.11-74.644C462.616,367.056,456.238,356.678,442.839,356.628z"/>
	
		<ellipse transform="matrix(0.9871 -0.1602 0.1602 0.9871 -27.0777 28.4035)" style="fill:#332B33;" cx="162.637" cy="182.154" rx="24.403" ry="24.404"/>
	<circle style="fill:#FFC05A;" cx="190.061" cy="235.609" r="4.881"/>
	<g>
		<g>
			<path style="fill:#AE4E3E;" d="M237.527,305.711c0.961,0.374,1.925,0.849,2.836,1.409c0.455,0.28,0.898,0.58,1.321,0.897
				l0.621,0.486l0.299,0.25l0.074,0.065l0.02,0.02l0.648,0.641l0.645,0.643l0.535,0.56l2.018,2.155l3.845,4.199l7.525,8.347
				l14.905,16.709l-9.461-3.092l76.146-5.794c3.099-0.236,5.802,2.085,6.038,5.184c0.215,2.824-1.695,5.319-4.381,5.918
				l-74.52,16.689c-3.031,0.679-6.048-0.172-8.244-2.042l-1.217-1.05l-16.861-14.539l-8.437-7.197l-4.189-3.518l-2.033-1.668
				l-0.484-0.389l-0.39-0.289l-0.386-0.291l-0.012-0.009c-0.01-0.008-0.013-0.01,0.041,0.037l0.23,0.197
				c0.156,0.13,0.317,0.257,0.483,0.379c0.332,0.246,0.682,0.475,1.046,0.684c0.727,0.419,1.507,0.751,2.285,0.984
				c-7.339-2.5-11.262-10.477-8.762-17.816C222.211,307.133,230.188,303.21,237.527,305.711z"/>
		</g>
		<path style="fill:#FFDCCE;" d="M212.66,301.751c1.424-4.06,2.177-8.198,1.516-12.528c-0.445-2.923-1.502-5.594-3.01-8.012
			c-2.552-4.085-6.395-7.452-10.774-10.102c-2.982-1.813-6.21-3.29-9.451-4.438c-0.469-0.168-0.941-0.329-1.411-0.483
			c-1.826-0.596-3.672-1.124-5.535-1.588c-6.402,5.36-16.096,6.465-24.137,5.822c-2.962-0.237-5.928-0.744-8.734-1.746
			c-1.402-0.501-2.73-1.426-4.199-1.716c-1.801-0.355-3.162,0.522-4.831,1.078c-4.755,1.586-9.973,1.264-14.625,3.18
			c-3.855,1.588-6.656,4.928-9.086,8.189c-3.28,4.4-5.545,9.57-6.483,15.163c-0.455,2.706-0.494,5.205-0.238,7.557
			c0.05,0.46,0.114,0.913,0.185,1.362c0.486,0.037,0.967,0.259,1.326,0.735c3.984,5.288,7.011,11.207,9.178,17.457
			c0.108,0.312,0.206,0.627,0.31,0.94c0.194,0.127,0.364,0.291,0.487,0.504c3.851,6.651-0.592,11.97,0.372,19.32
			c-2.925,10.921-3.849,17.787-3.775,22.428c-0.236,0.986-0.364,2.012-0.364,3.067v3.387c0,6.92,5.372,12.643,12.151,13.214
			c-0.069,0.48-0.109,0.771-0.109,0.803c0.226,2.656,1.105,0.796,1.907-0.77c0.533-0.027,1.056-0.09,1.571-0.179
			c0.032,0.003,0.063,0.007,0.095,0.01c18.261,1.691,37.704,6.725,55.79,3.701c3.514-0.588,7.126-1.309,10.067-3.325
			c6.486-4.439,6.588-19.242,5.206-27.093c-0.084-0.476-0.175-0.945-0.277-1.407c-1.771-8.145-5.398-16.094-4.837-24.411
			C201.665,321.185,209.177,311.695,212.66,301.751z"/>
		<path style="fill:#FFBF80;" d="M116.962,317.617c-0.378-0.849-0.775-1.691-1.192-2.526
			C116.161,315.934,116.561,316.774,116.962,317.617z"/>
		<g>
			<g>
				<path style="fill:#FCC2AE;" d="M183.797,317.68c-5.936,14.357-17.374,25.773-31.742,31.682c-1.657,0.681-0.931,3.413,0.75,2.722
					c15.388-6.329,27.356-18.277,33.713-33.654C187.212,316.754,184.482,316.023,183.797,317.68L183.797,317.68z"/>
			</g>
		</g>
		<path style="fill:#8A4915;" d="M160.637,453.465c1.24-24.485,2-43.4,1.705-48.462l-36.869-3.264
			c-0.01,5.366-0.013,25.698,0.01,51.726H160.637z"/>
		<path style="fill:#8A4915;" d="M202.165,453.465c-0.508-29.388-0.986-52.962-1.276-59.461l-36.695,4.838
			c-0.094,6.038,1.309,27.509,3.341,54.624H202.165z"/>
		<path style="fill:#8A4915;" d="M125.425,382.525v30.267c0,16.063,13.144,29.206,29.207,29.206h16.864
			c16.063,0,29.206-13.144,29.206-29.206v-30.267H125.425z"/>
		<g>
			<g>
				<path style="fill:#472A1C;" d="M153.693,443.065c7.77,1.376,17.204,0.738,23.609-4.34c0.98-0.777-0.404-2.144-1.375-1.375
					c-5.78,4.583-14.731,5.077-21.718,3.84C152.986,440.974,152.461,442.848,153.693,443.065L153.693,443.065z"/>
			</g>
		</g>
		
			<line style="fill:none;stroke:#C67B30;stroke-width:2.6098;stroke-miterlimit:10;" x1="125.837" y1="390.688" x2="200.89" y2="390.688"/>
		<path style="fill:#FCC2AE;" d="M201.845,392.546h-76.199c-2.794,0-5.08-2.286-5.08-5.08l0,0c0-2.794,2.286-5.08,5.08-5.08h76.199
			c2.794,0,5.08,2.286,5.08,5.08l0,0C206.925,390.26,204.639,392.546,201.845,392.546z"/>
		<g>
			<path style="fill:#AE4E3E;" d="M109.527,334.12c-1.314-7.922-1.229-15.99,0.902-23.96c0.657-2.455,1.477-4.842,2.432-7.168
				l-37.898,36.113c-3.748,3.572-4.195,9.397-1.036,13.499l44.229,51.406l5.709-11.543l-28.35-44.996L109.527,334.12z"/>
		</g>
		<path style="fill:#AE4E3E;" d="M128.739,420.239c1.995-0.819-2.186-9.28-2.186-9.28s6.145,10.682,7.76,10.331
			c2.551-0.554-4.627-12.588-4.627-12.588s8.147,12.901,10.351,11.079c2.205-1.823-7.308-13.677-7.308-13.677
			s9.636,10.597,11.246,8.712c1.61-1.884-11.345-15.074-11.345-15.074s9.299,0.993,9.623-0.888
			c0.547-3.174-19.118-6.108-19.118-6.108l-8.837,6.376C114.3,399.122,126.745,421.058,128.739,420.239z"/>
		<path style="fill:#FFDCCE;" d="M148.313,266.176c-9.072-0.068-19.594,1.859-27.934,5.431
			c-14.892,6.378-30.376,11.371-46.188,14.894c-1.616,0.36-3.432,0.846-4.219,2.303c-0.505,0.934-0.455,2.059-0.354,3.115
			c1.257,13.204,8.745,25.681,19.807,33c2.823,1.868,5.905,3.453,8.184,5.956c2.102,2.309,3.384,5.256,5.391,7.648
			c5.198,6.197,18.76,6.248,26.832,5.74c5.813-19.469-6.79-35.011-0.927-51.881C132.557,281.873,140.918,274.486,148.313,266.176z"
			/>
		<path style="fill:#FFDCCE;" d="M185.906,266.779c9.073-0.068,19.594,1.859,27.934,5.431c14.892,6.377,30.376,11.371,46.188,14.894
			c1.616,0.36,3.432,0.846,4.219,2.303c0.505,0.934,0.455,2.059,0.354,3.115c-1.257,13.205-8.745,25.681-19.807,33
			c-2.823,1.868-5.905,3.453-8.184,5.956c-2.102,2.309-3.384,5.256-5.391,7.648c-5.198,6.197-13.325,9.528-21.397,9.02
			c-2.402-8.045-22.385-27.892-21.1-34.966c1.824-10.046,4.646-19.641,1.206-29.541C186.276,273.13,193.301,275.089,185.906,266.779
			z"/>
		
			<polyline style="fill:none;stroke:#FCC2AE;stroke-width:3.3868;stroke-linecap:round;stroke-linejoin:round;stroke-miterlimit:10;" points="
			117.962,297.76 125.312,345.536 109.562,311.41 		"/>
		<path style="fill:#8A4915;" d="M137.254,401.65l-12.442,17.28l6.806,6.945c5.362,5.471,14.316,4.965,19.027-1.075l4.579-5.87
			L137.254,401.65z"/>
		
			<polyline style="fill:none;stroke:#472A1C;stroke-width:1.5552;stroke-linecap:round;stroke-linejoin:round;stroke-miterlimit:10;" points="
			131.724,429.298 124.812,418.93 137.254,401.65 		"/>
		
			<polyline style="fill:none;stroke:#FCC2AE;stroke-width:3.3868;stroke-linecap:round;stroke-linejoin:round;stroke-miterlimit:10;" points="
			212.66,301.751 200.945,331.871 227.306,303.533 		"/>
		<path style="fill:#AE4E3E;" d="M359.36,354.612c1.267-2.005-7.871-6.928-7.871-6.928s12.314,5.663,13.539,4.319
			c1.935-2.122-12.167-8.339-12.167-8.339s15.523,6.378,16.338,3.339c0.816-3.039-15.264-7.608-15.264-7.608
			s15.39,3.362,15.633,0.647c0.243-2.715-19.775-6.288-19.775-6.288s8.97-5.033,8.062-6.926c-1.531-3.194-21.032,6.702-21.032,6.702
			l-3.861,11.346C332.962,344.876,358.093,356.616,359.36,354.612z"/>
		<path style="fill:none;stroke:#A595FA;stroke-width:5;stroke-linecap:round;stroke-linejoin:round;stroke-miterlimit:10;" d="
			M136,267.5c0,0-5,51.5,18,61.5c0,0,29-6.5,43-60.5"/>
		<rect x="140.5" y="326" style="fill:#A595FA;" width="26.5" height="38.5"/>
		
			<rect x="140.167" y="336.5" transform="matrix(6.123234e-17 -1 1 6.123234e-17 -192.5 500.5)" style="fill:#FCF6F1;" width="27.667" height="20"/>
		
			<rect x="152.833" y="349.833" transform="matrix(6.123234e-17 -1 1 6.123234e-17 -198.1667 509.8333)" style="fill:#DCDCFF;" width="6" height="8.333"/>
		
			<line style="fill:none;stroke:#2D201B;stroke-linecap:round;stroke-linejoin:round;stroke-miterlimit:10;" x1="152" y1="347.667" x2="152" y2="336"/>
		
			<line style="fill:none;stroke:#2D201B;stroke-linecap:round;stroke-linejoin:round;stroke-miterlimit:10;" x1="155" y1="347.667" x2="155" y2="336"/>
		
			<line style="fill:none;stroke:#2D201B;stroke-linecap:round;stroke-linejoin:round;stroke-miterlimit:10;" x1="158" y1="347.667" x2="158" y2="336"/>
		<path style="fill:#2D201B;" d="M153.333,331.667L153.333,331.667c-1.1,0-2-0.9-2-2v-4c0-1.1,0.9-2,2-2l0,0c1.1,0,2,0.9,2,2v4
			C155.333,330.767,154.433,331.667,153.333,331.667z"/>
	</g>
	<path style="fill:#AE4E3E;" d="M181.903,264.293c-6.805-3.04-9.593-21.462-8.833-28.876L158.5,233.5
		c0.577,5.073-2.275,22.651-4.736,27.124c-1.283,2.332-2.839,4.771-5.331,5.706c4.078,4.638,10.652,6.594,16.819,6.258
		C171.419,272.25,178.354,269.348,181.903,264.293z"/>
	<path style="fill:#AE4E3E;" d="M172.613,251.208L172.613,251.208c8.683,0.695,16.356-5.84,17.051-14.522l1.833-22.888
		c0.695-8.683-5.84-16.356-14.522-17.051l0,0c-8.683-0.695-16.356,5.84-17.051,14.522l-1.833,22.888
		C157.396,242.839,163.931,250.512,172.613,251.208z"/>
	<path style="fill:#332B33;" d="M164.849,221.312c2.209-3.238,0.93-7.739,1.128-11.421c0.263-4.889,5.848-6.946,9.675-4.567
		c3.154,1.961,6.45,3.488,10.2,3.732c2.148,0.14,3.837-0.423,4.965-1.246c-1.885-5.972-7.241-10.535-13.842-11.064
		c-8.683-0.695-16.355,5.84-17.051,14.522l-1.149,14.348C161.193,224.876,163.405,223.428,164.849,221.312z"/>
	<path style="fill:#AE4E3E;" d="M149.397,227.579c-0.269,3.358,2.235,6.297,5.593,6.566c3.357,0.269,6.297-2.235,6.566-5.592
		c0.269-3.358-2.235-6.298-5.592-6.566C152.606,221.718,149.666,224.222,149.397,227.579z"/>
	<path style="fill:#FCF6F1;" d="M183.772,236.771c0.006,0.103,0.015,0.205,0.015,0.31c0,2.91-2.22,5.268-4.958,5.268
		c-2.738,0-4.958-2.359-4.958-5.268c0-0.105,0.009-0.207,0.015-0.31H183.772z"/>
	<circle style="fill:#FFC05A;" cx="156.594" cy="236.074" r="4.881"/>
	
		<line style="fill:none;stroke:#2D1A14;stroke-width:2.331;stroke-linecap:round;stroke-linejoin:round;stroke-miterlimit:10;" x1="34.961" y1="453.246" x2="439.039" y2="454.5"/>
	<path style="fill:#FFFFFF;" d="M266.899,410.209c0,0.898-0.728,1.626-1.626,1.626c-0.898,0-1.626-0.728-1.626-1.626
		c0-0.898,0.728-1.626,1.626-1.626C266.171,408.583,266.899,409.311,266.899,410.209z"/>
	<g>
		<path style="fill:#DCDCFF;" d="M334.256,250.635c0,2.945-2.387,5.332-5.332,5.332c-2.945,0-5.332-2.387-5.332-5.332
			c0-2.945,2.387-5.332,5.332-5.332C331.869,245.304,334.256,247.691,334.256,250.635z"/>
		<g>
			<ellipse style="fill:#2D201B;" cx="237.664" cy="286.951" rx="33.185" ry="21.264"/>
			<ellipse style="fill:#2D201B;" cx="283.736" cy="294.039" rx="23.197" ry="19.331"/>
			<ellipse style="fill:#2D201B;" cx="315.633" cy="283.729" rx="24.164" ry="23.842"/>
			<ellipse style="fill:#2D201B;" cx="446.149" cy="290.515" rx="35.184" ry="22.545"/>
			<ellipse style="fill:#2D201B;" cx="397.301" cy="298.03" rx="24.595" ry="20.496"/>
			<ellipse style="fill:#2D201B;" cx="363.483" cy="287.099" rx="25.62" ry="25.278"/>
		</g>
		<path style="fill:#F3725F;" d="M290.176,368.206l-21.379,5.428l-43.894-15.926l-4.948,9.693l42.527,27.941
			c3.569,2.345,7.882,3.278,12.101,2.617l42.732-6.689L290.176,368.206z"/>
		<g>
			<g>
				<path style="fill:#2D201B;" d="M334.664,281.262c1.828,3.102,3.895,6.063,6.185,8.842c2.877,3.491,7.275,6.987,11.48,5.323
					c3.06-1.211,3.881-4.923,5.498-7.789c1.125-1.994,2.154-4.131,3.085-6.375H334.664z"/>
				<g>
					<g>
						<path style="fill:#C2C0F2;" d="M325.347,318.921c-4.66,3.214-10.099,5.06-15.246,7.417
							c-5.147,2.357-10.248,5.442-13.211,10.265c-4.357,7.092-3.122,16.27-0.449,24.153c2.674,7.882,6.661,15.461,7.487,23.744
							c0.161,1.612,0.198,3.25-0.092,4.844c-0.644,3.541-2.824,6.57-4.592,9.705c-2.07,3.671-3.628,7.631-4.615,11.728
							c-0.863,3.586-1.27,7.45,0.046,10.895c1.386,3.627,4.566,6.362,8.122,7.922c3.556,1.56,7.482,2.066,11.358,2.284
							c18.423,1.039,36.802-4.022,55.215-2.828c2.155,0.14,4.373,0.358,6.432-0.295c2.844-0.903,4.937-3.336,6.47-5.895
							c4.268-7.125,5.253-16.131,2.628-24.01c-0.658-1.974-1.533-3.892-1.887-5.943c-0.752-4.352,0.903-8.708,2.251-12.914
							c3.028-9.45,4.614-19.361,4.686-29.284c0.026-3.563-0.159-7.209-1.488-10.516c-0.996-2.479-2.603-4.674-4.423-6.63
							c-6.735-7.243-16.338-11.301-26.07-13.065c-9.732-1.764-19.707-1.426-29.591-1.082"/>
						<path style="fill:#F3725F;" d="M359.371,321.28c-7.07-3.863-11.182-12.5-9.723-20.423h-14.132
							c0.184,5.516-3.111,9.434-6.148,14.042c-1.583,2.402-3.471,4.896-6.236,5.688c3.994,5.35,10.908,8.025,17.582,8.194
							C347.388,328.949,355.111,326.42,359.371,321.28z"/>
						<path style="fill:#2D201B;" d="M328.868,315.639c4.114-0.724,8.279-2.064,11.412-4.855c2.945-2.625,4.592-6.172,5.482-9.928
							h-10.245c0.184,5.516-3.111,9.434-6.148,14.042C329.205,315.145,329.038,315.392,328.868,315.639z"/>
						<path style="fill:#F3725F;" d="M339.131,305.205L339.131,305.205c-8.125,0-14.772-6.648-14.772-14.772v-21.418
							c0-8.125,6.648-14.772,14.772-14.772l0,0c8.125,0,14.773,6.648,14.773,14.772v21.418
							C353.904,298.557,347.256,305.205,339.131,305.205z"/>
						<path style="fill:#F3725F;" d="M362.448,284.384c0.356,3.598-2.642,6.597-6.24,6.241c-2.662-0.264-4.816-2.417-5.08-5.079
							c-0.356-3.598,2.642-6.597,6.24-6.241C360.031,279.568,362.185,281.722,362.448,284.384z"/>
						<path style="fill:#FFFFFF;" d="M341.173,290.072c-0.335,3.056-2.799,5.451-5.846,5.479c-3.047,0.027-5.554-2.323-5.944-5.372
							L341.173,290.072z"/>
						<path style="fill:#C2C0F2;" d="M318.794,409.569c-19.695-5.905-35.21-23.891-38.159-44.24
							c3.959-8.801,9.35-19.895,14.731-27.906c1.884-2.805,3.924-5.625,6.776-7.437c2.852-1.811,6.721-2.408,9.589-0.622
							c2.131,1.328,3.359,3.689,4.404,5.973C327.246,359.627,327.508,384.321,318.794,409.569z"/>
					</g>
				</g>
				<path style="fill:#F3725F;" d="M342.334,280.912c1.35-4.784,1.853-9.805,1.479-14.761c2.851,5.706,4.068,12.217,3.471,18.568"/>
			</g>
			<path style="fill:#332B33;" d="M384.667,453.667c0,0-3.553-15.704-9.509-25.989l-74.175,0.202l-1.015,4.211
				c-5.028,9.283-5.336,20.872-5.336,20.872c0-0.093,2.138-0.136,5.258-0.149c0.312,0.061,0.635,0.094,0.969,0.089
				c1.657-0.024,3.614-0.052,5.806-0.083c8.102,0.035,10.002,1.514,10.002,1.514h8.667
				C350.471,453.996,385.875,455.919,384.667,453.667z"/>
		</g>
		<path style="fill:#2D201B;" d="M353.984,280.552c-4.25-1.38-7.593-5.296-8.329-9.756c-9.35,5.344-21.86,3.516-30.06-3.503
			c-7.604-6.508-12.183-17.193-11.43-27.196c0.347-4.611,1.705-9.899,5.841-12.523c4.167-2.644,9.861-2.202,13.798,0.661
			c4.939,3.592,7.266,10,7.456,16.157c2.146-4.532,7.29-6.013,12.204-5.324c4.914,0.689,9.215,3.874,12.333,7.783
			c5.583,6.998,7.83,16.609,5.939,25.401"/>
		<path style="fill:#C2C0F2;" d="M393.781,356.098c-0.76-4.141-2.013-8.67-4.241-12.284c-2.05-3.326-5.219-4.982-9.131-4.615
			c-3.208,0.301-6.088,1.675-8.821,3.283c-4.188,2.464-5.89,7.259-7.411,11.697c-1.786,5.208-3.458,13.134-3.447,18.641v0.302
			c3.217,5.052,7.225,12.606,11.134,17.144c3.253,3.775,7.613,6.583,12.396,7.984c4.638-4.763,7.101-11.358,8.655-17.822
			C394.76,372.756,395.262,364.16,393.781,356.098z"/>
		<g>
			<path style="fill:#F3725F;" d="M227.834,362.63l-6.414,5.456l-18.225-9.926l2.471-13.728l16.262,2.597
				C222.972,352.759,224.131,358.473,227.834,362.63z"/>
			<path style="fill:#F3725F;" d="M219.108,354.595c-2.839-2.501-3.799-6.906-2.258-10.361c-2.301-2.653-2.972-6.441-2.154-9.856
				c0.035-0.146,0.077-0.299,0.185-0.404c0.415-0.402,0.981,0.308,1.124,0.867c0.607,2.375,1.354,4.767,2.773,6.766
				c1.02,1.438,2.357,2.629,3.37,4.072c2.93,4.173,2.733,9.788,1.589,14.757"/>
			<path style="fill:#F3725F;" d="M216.931,350.916c-0.773-1.572-1.995-2.92-3.483-3.845c-0.998-0.62-2.104-1.049-3.104-1.665
				c-3.542-2.182-5.256-6.312-7.191-9.996c-0.741-1.41-1.843-2.971-3.435-2.951c1.269,4.752,3.526,9.237,6.586,13.087
				c-0.092-0.342-0.73-0.252-1.018-0.046c-2.665,1.908-4.563,4.856-5.197,8.072c4.032,5.064,5.468,6.345,11.075,9.58
				c2.172,1.253,15.076,7.344,17.379,6.351c1.693-0.73,2.7-2.993,1.534-5.465c-0.787-1.667-5.775-4.859-6.367-6.604
				c-1.409-4.152-3.98-7.902-7.344-10.714"/>
			<path style="fill:#F3725F;" d="M205.522,350.152c-2.236-2.483-4.484-4.98-6.266-7.751c-1.783-2.771-3.095-5.856-3.286-9.03
				c1.295,0.729,2.475,1.641,3.08,2.921c0.605,1.28,1.046,3.366,1.99,4.466c0.965,1.124,5.767,6.272,8.532,10.151"/>
			<path style="fill:#F3725F;" d="M202.834,354.65c-2.199-2.656-4.408-5.326-6.146-8.304c-1.738-2.978-2.997-6.304-3.129-9.749
				c1.286,0.767,2.454,1.736,3.037,3.115c0.583,1.379,0.987,3.638,1.913,4.815c0.947,1.203,5.672,6.706,8.376,10.869"/>
			<path style="fill:#F3725F;" d="M207.607,360.768c-2.991-1.715-5.996-3.441-8.668-5.62c-2.672-2.179-5.018-4.852-6.35-8.032
				c1.473,0.267,2.907,0.765,3.937,1.852s2.2,3.061,3.481,3.837c1.309,0.794,7.664,4.29,11.656,7.24"/>
		</g>
		<path style="fill:#C2C0F2;" d="M379.033,430.904h-78.05c-2.163,0-3.933-1.77-3.933-3.933l0,0c0-2.163,1.77-3.933,3.933-3.933
			h78.05c2.163,0,3.933,1.77,3.933,3.933l0,0C382.966,429.135,381.196,430.904,379.033,430.904z"/>
		<path style="fill:none;stroke:#8383D6;stroke-width:1.847;stroke-linecap:round;stroke-linejoin:round;stroke-miterlimit:10;" d="
			M309.842,369.113c0,0-7.577-4.762-2.61-14.673"/>
		<path style="fill:none;stroke:#8383D6;stroke-width:1.847;stroke-linecap:round;stroke-linejoin:round;stroke-miterlimit:10;" d="
			M332.155,369.749c0,0-7.577-4.762-2.611-14.673"/>
		<circle style="fill:#C2C0F2;" cx="355.285" cy="293.711" r="5.597"/>
		<path style="fill:#F3725F;" d="M376.89,387.929c-8.72-0.657-17.519-2.57-25.512-6.181l-9.469,19.018l-57.106,24.71l2.599,8.722
			l69.835-15.571c4.021-0.896,7.405-3.596,9.172-7.317l11.089-23.344C377.296,387.952,377.093,387.944,376.89,387.929z"/>
		<g>
			<path style="fill:#F3725F;" d="M272.684,424.756c0.985,0.136,1.97,0.267,2.952,0.379c0.021,0.641-0.176,1.288-0.634,1.743
				l-15.375,15.252c-0.798,0.792-2.01,0.704-2.695-0.195c-0.684-0.898-0.591-2.282,0.207-3.073l14.524-14.408
				C271.976,424.592,272.309,424.704,272.684,424.756z"/>
			<path style="fill:#F3725F;" d="M287.994,424.076l2.916,7.134l-13.829,13.019l-11.234-6.064l6.896-13.402
				C278.023,425.489,283.322,426.111,287.994,424.076z"/>
		</g>
		<path style="fill:none;stroke:#2D201B;stroke-linecap:round;stroke-linejoin:round;stroke-miterlimit:10;" d="M207.34,350.944
			c4.546,0.582,8.598,4.023,9.908,8.415"/>
		<rect x="338.667" y="357" style="fill:#FCF6F1;" width="27.667" height="20"/>
		<path style="fill:#2D201B;" d="M352.333,360.333L352.333,360.333c-1.467,0-2.667-1.2-2.667-2.667v-12
			c0-1.467,1.2-2.667,2.667-2.667l0,0c1.467,0,2.667,1.2,2.667,2.667v12C355,359.133,353.8,360.333,352.333,360.333z"/>
		<rect x="342" y="364.667" style="fill:#DCDCFF;" width="6" height="8.333"/>
		
			<line style="fill:none;stroke:#2D201B;stroke-linecap:round;stroke-linejoin:round;stroke-miterlimit:10;" x1="351.333" y1="365" x2="363" y2="365"/>
		
			<line style="fill:none;stroke:#2D201B;stroke-linecap:round;stroke-linejoin:round;stroke-miterlimit:10;" x1="351.333" y1="368" x2="363" y2="368"/>
		
			<line style="fill:none;stroke:#2D201B;stroke-linecap:round;stroke-linejoin:round;stroke-miterlimit:10;" x1="351.333" y1="371" x2="363" y2="371"/>
	</g>
	<g>
		<path style="fill:#DCDCFF;" d="M177.804,450.241l-14.746-53.644c-1.562-5.683,2.389-11.387,7.888-11.387h80.206
			c3.328,0,6.328,2.161,7.601,5.476l17.694,46.07c2.26,5.884-1.798,12.342-7.706,12.259
			C240.766,448.619,175.672,447.943,177.804,450.241z"/>
		<path style="fill:#A2A2F9;" d="M310.212,455.226H177.562c-3.2,0-5.819-2.618-5.819-5.818v-0.122c0-3.2,2.618-5.819,5.819-5.819
			h132.651c3.2,0,5.819,2.618,5.819,5.819v0.122C316.031,452.608,313.413,455.226,310.212,455.226z"/>
		<path style="fill:#2D1A14;" d="M255.57,451.194h-23.414c-1.317,0-2.395-1.078-2.395-2.395l0,0c0-1.317,1.078-2.395,2.395-2.395
			h23.414c1.317,0,2.395,1.078,2.395,2.395l0,0C257.965,450.116,256.887,451.194,255.57,451.194z"/>
		<path style="fill:#2D1A14;" d="M207.678,423.322L207.678,423.322c-2.377,0-4.321-1.945-4.321-4.321v0
			c0-2.377,1.945-4.321,4.321-4.321l0,0c2.377,0,4.321,1.945,4.321,4.321v0C212,421.377,210.055,423.322,207.678,423.322z"/>
		
			<line style="fill:none;stroke:#2D1A14;stroke-width:1.5964;stroke-linecap:round;stroke-linejoin:round;stroke-miterlimit:10;" x1="250.515" y1="390.531" x2="270.736" y2="441.616"/>
	</g>
	
		<line style="fill:none;stroke:#2D1A14;stroke-width:1.5964;stroke-linecap:round;stroke-linejoin:round;stroke-miterlimit:10;" x1="384.667" y1="453.667" x2="422" y2="371.667"/>
	<g>
		<g>
			<path style="fill:#DCDCFF;" d="M97,165.333c-17.678,0-32.591,12.031-37.002,28.333h10.496
				c4.051-10.702,14.402-18.333,26.506-18.333c15.623,0,28.334,12.71,28.334,28.333C125.334,219.29,112.623,232,97,232
				c-9.69,0-18.256-4.892-23.367-12.333H62.179C68.254,232.834,81.573,242,97,242c21.137,0,38.333-17.196,38.333-38.333
				C135.333,182.53,118.137,165.333,97,165.333z"/>
		</g>
		<polyline style="fill:none;stroke:#DCDCFF;stroke-width:10;stroke-miterlimit:10;" points="63,240 63,217.667 84.633,217.667 		
			"/>
	</g>
	<g>
		<g>
			<path style="fill:#DCDCFF;" d="M383.521,250.4c11.804,11.804,29.795,13.728,43.625,5.788l-7.008-7.008
				c-9.851,4.441-21.857,2.625-29.939-5.457c-10.432-10.432-10.432-27.405,0-37.837c10.432-10.432,27.405-10.432,37.837,0
				c6.47,6.47,8.923,15.456,7.367,23.838l7.648,7.648c4.736-12.848,1.963-27.862-8.338-38.163
				c-14.113-14.114-37.078-14.114-51.191,0C369.407,213.322,369.407,236.286,383.521,250.4z"/>
		</g>
		<polyline style="fill:none;stroke:#DCDCFF;stroke-width:9.4428;stroke-miterlimit:10;" points="456.078,223.246 441.166,238.158 
			426.722,223.714 		"/>
	</g>
	<g>
		
			<ellipse transform="matrix(0.9239 -0.3827 0.3827 0.9239 -27.8202 138.805)" style="fill:#FFC05A;" cx="335" cy="139.333" rx="41.425" ry="41.424"/>
		<path style="fill:#FFC05A;" d="M336.667,197.667L336.667,197.667c-8.8,0-16-7.2-16-16V169c0-8.8,7.2-16,16-16l0,0
			c8.8,0,16,7.2,16,16v12.667C352.667,190.467,345.467,197.667,336.667,197.667z"/>
		
			<line style="fill:none;stroke:#2D1A14;stroke-width:1.5964;stroke-linecap:round;stroke-linejoin:round;stroke-miterlimit:10;" x1="333.333" y1="145" x2="333.333" y2="189"/>
		
			<line style="fill:none;stroke:#2D1A14;stroke-width:1.5964;stroke-linecap:round;stroke-linejoin:round;stroke-miterlimit:10;" x1="341" y1="145" x2="341" y2="189"/>
		<path style="fill:#A595FA;" d="M321,186.154v8.024c0,8.617,7.05,15.667,15.667,15.667c8.617,0,15.667-7.05,15.667-15.667v-8.024
			H321z"/>
		<path style="fill:#C2C0F2;" d="M352.204,196.089c0.077-0.628,0.13-1.263,0.13-1.911v-8.024H321v8.024
			c0,0.648,0.052,1.283,0.13,1.911H352.204z"/>
		<path style="fill:#A595FA;" d="M337.5,221.333L337.5,221.333c-3.025,0-5.5-2.475-5.5-5.5V208.5c0-3.025,2.475-5.5,5.5-5.5l0,0
			c3.025,0,5.5,2.475,5.5,5.5v7.333C343,218.858,340.525,221.333,337.5,221.333z"/>
		<path style="fill:#7369D1;" d="M332,213v2.833c0,3.025,2.475,5.5,5.5,5.5s5.5-2.475,5.5-5.5V213H332z"/>
		<path style="fill:none;stroke:#FCF6F1;stroke-width:5;stroke-linecap:round;stroke-linejoin:round;stroke-miterlimit:10;" d="
			M307.143,124.132c-4.094,8.021-4.646,17.198-2.476,25.868"/>
		<path style="fill:none;stroke:#FCF6F1;stroke-width:5;stroke-linecap:round;stroke-linejoin:round;stroke-miterlimit:10;" d="
			M319.333,110.333c-2.36,1.513-4.48,3.439-6.375,5.494"/>
		<path style="fill:none;stroke:#FCF6F1;stroke-width:5;stroke-linecap:round;stroke-linejoin:round;stroke-miterlimit:10;" d="
			M363.229,157.878c-1.663,3.367-3.946,6.442-6.895,8.789"/>
		<path style="fill:none;stroke:#FCF6F1;stroke-width:5;stroke-linecap:round;stroke-linejoin:round;stroke-miterlimit:10;" d="
			M367.333,139.667c0.008,3.03-0.382,6.08-1.007,9.04"/>
		<path style="fill:#FCF6F1;" d="M359.763,127.348c0,3.871-3.138,7.009-7.009,7.009s-7.009-3.138-7.009-7.009
			c0-3.871,3.138-7.009,7.009-7.009S359.763,123.477,359.763,127.348z"/>
		<circle style="fill:#FCF6F1;" cx="351.833" cy="144.5" r="3.5"/>
		<path style="fill:#FCF6F1;" d="M324.333,160.5c0,2.301-1.865,4.167-4.167,4.167c-2.301,0-4.167-1.866-4.167-4.167
			s1.866-4.167,4.167-4.167C322.468,156.333,324.333,158.199,324.333,160.5z"/>
	</g>
	<polygon style="fill:#FFC05A;" points="258.333,129.088 262.545,136.789 270.245,141 262.545,145.211 258.333,152.912 
		254.122,145.211 246.422,141 254.122,136.789 	"/>
	<polygon style="fill:#FFC05A;" points="212.667,219.743 215.468,224.865 220.59,227.667 215.468,230.468 212.667,235.59 
		209.865,230.468 204.743,227.667 209.865,224.865 	"/>
	<polygon style="fill:#FFC05A;" points="94,136.743 96.801,141.865 101.923,144.667 96.801,147.468 94,152.59 91.199,147.468 
		86.077,144.667 91.199,141.865 	"/>
	<polygon style="fill:#FFC05A;" points="155,101.427 157.088,105.245 160.907,107.333 157.088,109.422 155,113.24 152.912,109.422 
		149.093,107.333 152.912,105.245 	"/>
	<polygon style="fill:#FFC05A;" points="400.912,160.182 403,164 406.818,166.088 403,168.177 400.912,171.995 398.823,168.177 
		395.005,166.088 398.823,164 	"/>
	<polygon style="fill:#FFC05A;" points="439.333,129.59 444.193,138.474 453.077,143.333 444.193,148.193 439.333,157.077 
		434.474,148.193 425.59,143.333 434.474,138.474 	"/>
	<polygon style="fill:#FFC05A;" points="57,261.972 60.545,268.455 67.028,272 60.545,275.545 57,282.028 53.455,275.545 
		46.972,272 53.455,268.455 	"/>
	<polygon style="fill:#FFC05A;" points="55.333,336.883 58.203,342.13 63.451,345 58.203,347.87 55.333,353.117 52.464,347.87 
		47.216,345 52.464,342.13 	"/>
	<polygon style="fill:#FFC05A;" points="457.505,342.074 454.579,337.236 449.505,334.741 454.343,331.815 456.838,326.741 
		459.764,331.579 464.838,334.074 460,337 	"/>
</g>
</svg>
